<?xml version="1.0" encoding="UTF-8" standalone="no"?>
<svg
   xmlns:dc="http://purl.org/dc/elements/1.1/"
   xmlns:cc="http://creativecommons.org/ns#"
   xmlns:rdf="http://www.w3.org/1999/02/22-rdf-syntax-ns#"
   xmlns:svg="http://www.w3.org/2000/svg"
   xmlns="http://www.w3.org/2000/svg"
   xmlns:sodipodi="http://sodipodi.sourceforge.net/DTD/sodipodi-0.dtd"
   xmlns:inkscape="http://www.inkscape.org/namespaces/inkscape"
   width="35.718903mm"
   height="32.33939mm"
   viewBox="0 0 35.718903 32.339389"
   version="1.1"
   id="svg8"
   inkscape:version="1.0.1 (3bc2e813f5, 2020-09-07, custom)"
   sodipodi:docname="stack.svg">
  <defs
     id="defs2" />
  <sodipodi:namedview
     id="base"
     pagecolor="#ffffff"
     bordercolor="#666666"
     borderopacity="1.0"
     inkscape:pageopacity="0.0"
     inkscape:pageshadow="2"
     inkscape:zoom="6.0350677"
     inkscape:cx="67.500291"
     inkscape:cy="60.541902"
     inkscape:document-units="mm"
     inkscape:current-layer="layer1"
     inkscape:document-rotation="0"
     showgrid="false"
     fit-margin-top="2"
     fit-margin-left="3"
     fit-margin-right="3"
     fit-margin-bottom="3"
     inkscape:window-width="1920"
     inkscape:window-height="1016"
     inkscape:window-x="0"
     inkscape:window-y="0"
     inkscape:window-maximized="1" />
  <metadata
     id="metadata5">
    <rdf:RDF>
      <cc:Work
         rdf:about="">
        <dc:format>image/svg+xml</dc:format>
        <dc:type
           rdf:resource="http://purl.org/dc/dcmitype/StillImage" />
        <dc:title></dc:title>
      </cc:Work>
    </rdf:RDF>
  </metadata>
  <g
     inkscape:label="Layer 1"
     inkscape:groupmode="layer"
     id="layer1"
     transform="translate(-55.532894,-41.719108)">
    <g
       style="fill:#f03e2f;fill-opacity:1"
       id="g996"
       transform="matrix(0.26458333,0,0,0.26458333,59.512834,55.834108)">
      <path
         opacity="0.7"
         d="M 78.1793,7.99261 V 21.0028 h -4.2762 v -10.789 z"
         fill="currentColor"
         id="path940"
         style="fill:#f03e2f;fill-opacity:1" />
      <path
         opacity="0.7"
         d="m 20.9511,21.33 9.9929,-5.2249 -1.2319,-3.191 -6.5789,3.068 z"
         fill="currentColor"
         id="path942"
         style="fill:#f03e2f;fill-opacity:1" />
      <path
         opacity="0.5"
         d="M 73.9031,10.2027 84.7443,4.65477 82.9126,1.5571 73.9031,5.95997 Z"
         fill="currentColor"
         id="path944"
         style="fill:#f03e2f;fill-opacity:1" />
      <path
         opacity="0.7"
         d="M 43.3705,6.96233 V 21.0028 H 39.2927 V 1.00714 Z"
         fill="currentColor"
         id="path946"
         style="fill:#f03e2f;fill-opacity:1" />
      <path
         opacity="0.5"
         d="M 27.1299,6.18617 20.9511,21.33 17.7731,18.5943 25.1353,1.00714 Z"
         fill="currentColor"
         id="path948"
         style="fill:#f03e2f;fill-opacity:1" />
      <path
         d="m 25.1353,1.00714 h 4.2124 l 7.7909,19.99566 h -4.3117 z"
         fill="currentColor"
         id="path950"
         style="fill:#f03e2f;fill-opacity:1" />
      <path
         d="m 44.0012,1.00714 8.9812,13.66106 v 6.3346 L 39.2927,1.00714 Z"
         fill="currentColor"
         id="path952"
         style="fill:#f03e2f;fill-opacity:1" />
      <path
         d="M 64.9183,1.00714 H 60.6739 V 21.0063 h 4.2444 z"
         fill="currentColor"
         id="path954"
         style="fill:#f03e2f;fill-opacity:1" />
      <path
         d="M 73.9031,4.65474 H 67.37 v -3.6476 h 15.2167 l 2.1576,3.6476 h -6.565 z"
         fill="currentColor"
         id="path956"
         style="fill:#f03e2f;fill-opacity:1" />
      <path
         opacity="0.5"
         d="m 97.2754,13.4153 v 7.5875 h -4.2125 v -7.5875"
         fill="currentColor"
         id="path958"
         style="fill:#f03e2f;fill-opacity:1" />
      <path
         d="M 93.0629,13.4152 100.191,1.00714 h 4.475 L 97.2754,13.4152 Z"
         fill="currentColor"
         id="path960"
         style="fill:#f03e2f;fill-opacity:1" />
      <path
         opacity="0.7"
         d="M 93.063,13.4152 85.7363,1.00714 h 4.6093 l 4.9636,8.50294 z"
         fill="currentColor"
         id="path962"
         style="fill:#f03e2f;fill-opacity:1" />
      <path
         d="m 1.96126,3.31479 c 0,2.78442 1.75019,4.44116 5.2541,5.31477 l 3.71294,0.84577 c 3.3161,0.74827 5.3356,2.60687 5.3356,5.63497 0.0258,1.3192 -0.4108,2.607 -1.2365,3.6476 0,-3.0211 -1.5907,-4.6535 -5.42768,-5.635 L 5.95409,12.3085 C 3.03475,11.6541 0.781478,10.1262 0.781478,6.83709 0.766123,5.56693 1.18116,4.32781 1.96126,3.31479"
         fill="currentColor"
         id="path964"
         style="fill:#f03e2f;fill-opacity:1" />
      <path
         opacity="0.7"
         d="M 52.9824,13.6415 V 1.00714 h 4.0778 V 21.0028 h -4.0778 z"
         fill="currentColor"
         id="path966"
         style="fill:#f03e2f;fill-opacity:1" />
      <path
         opacity="0.7"
         d="m 12.7458,14.3689 c 1.5836,0.9954 2.278,2.3876 2.278,4.3855 C 13.713,20.4041 11.4101,21.33 8.70333,21.33 4.14718,21.33 0.958577,19.1268 0.25,15.2982 h 4.37547 c 0.56331,1.7577 2.05487,2.5721 4.04597,2.5721 2.43046,0 4.04596,-1.2739 4.07786,-3.5084"
         fill="currentColor"
         id="path968"
         style="fill:#f03e2f;fill-opacity:1" />
      <path
         opacity="0.7"
         d="M 4.23567,7.44267 C 3.5125,7.02045 2.9192,6.41375 2.51873,5.68697 2.11827,4.96019 1.92558,4.14045 1.96113,3.31476 3.22594,1.67891 5.42608,0.679993 8.10804,0.679993 c 4.64116,0 7.32666,2.408527 7.98916,5.798567 h -4.2089 c -0.4641,-1.33653 -1.6262,-2.3772 -3.74483,-2.3772 -2.2639,0 -3.8086,1.29475 -3.89718,3.34131"
         fill="currentColor"
         id="path970"
         style="fill:#f03e2f;fill-opacity:1" />
    </g>
    <g
       style="shape-rendering:auto"
       id="g1037"
       transform="matrix(0.11759259,0,0,0.11759259,64.691964,43.694766)">
      <path
         d="m 34.992,23.495 h 27.855 v 2.219 H 37.546 v 16.699 h 23.792 v 2.219 H 37.546 v 18.334 h 25.591 v 2.219 H 34.992 Z m 30.35,0 h 2.96 L 81.417,41.829 94.822,23.495 113.055,0.207 83.1,43.756 98.536,65.185 H 95.46 L 81.417,45.683 67.316,65.185 H 64.298 L 79.85,43.756 65.343,23.495 Z m 34.297,2.219 v -2.219 h 31.742 v 2.219 h -14.623 v 39.47 h -2.554 V 25.714 H 99.64 Z M 0.145,23.495 H 3.337 L 47.348,89.498 29.16,65.185 2.814,26.648 2.698,65.185 H 0.145 Z m 130.98,38.801 c -0.523,0 -0.914,-0.405 -0.914,-0.928 0,-0.524 0.391,-0.929 0.913,-0.929 0.528,0 0.913,0.405 0.913,0.929 0,0.523 -0.385,0.928 -0.913,0.928 z m 2.508,-2.443 H 135 c 0.019,0.742 0.56,1.24 1.354,1.24 0.888,0 1.391,-0.535 1.391,-1.539 v -6.356 h 1.391 v 6.362 c 0,1.808 -1.043,2.849 -2.77,2.849 -1.62,0 -2.732,-1.01 -2.732,-2.556 z m 7.322,-0.08 h 1.379 c 0.118,0.853 0.95,1.395 2.149,1.395 1.117,0 1.937,-0.58 1.937,-1.377 0,-0.685 -0.521,-1.097 -1.708,-1.377 l -1.155,-0.28 c -1.62,-0.38 -2.36,-1.166 -2.36,-2.487 0,-1.602 1.304,-2.668 3.26,-2.668 1.82,0 3.15,1.066 3.23,2.58 h -1.354 c -0.13,-0.828 -0.85,-1.346 -1.894,-1.346 -1.1,0 -1.832,0.53 -1.832,1.34 0,0.642 0.472,1.01 1.64,1.284 l 0.987,0.243 c 1.838,0.43 2.596,1.178 2.596,2.53 0,1.72 -1.33,2.799 -3.453,2.799 -1.987,0 -3.323,-1.029 -3.422,-2.637 z"
         fill="#000000"
         fill-rule="nonzero"
         id="path1026" />
    </g>
    <g
       style="fill:none"
       id="g1096"
       transform="matrix(0.1051178,0,0,0.1051178,58.532894,64.330958)">
      <path
         d="m 141.04,16 c -11.04,0 -19,7.2 -19,18 0,10.8 8.96,18 20,18 6.67,0 12.55,-2.64 16.19,-7.09 l -7.65,-4.42 c -2.02,2.21 -5.09,3.5 -8.54,3.5 -4.79,0 -8.86,-2.5 -10.37,-6.5 h 28.02 c 0.22,-1.12 0.35,-2.28 0.35,-3.5 0,-10.79 -7.96,-17.99 -19,-17.99 z m -9.46,14.5 c 1.25,-3.99 4.67,-6.5 9.45,-6.5 4.79,0 8.21,2.51 9.45,6.5 z M 248.72,16 c -11.04,0 -19,7.2 -19,18 0,10.8 8.96,18 20,18 6.67,0 12.55,-2.64 16.19,-7.09 l -7.65,-4.42 c -2.02,2.21 -5.09,3.5 -8.54,3.5 -4.79,0 -8.86,-2.5 -10.37,-6.5 h 28.02 c 0.22,-1.12 0.35,-2.28 0.35,-3.5 0,-10.79 -7.96,-17.99 -19,-17.99 z m -9.45,14.5 c 1.25,-3.99 4.67,-6.5 9.45,-6.5 4.79,0 8.21,2.51 9.45,6.5 z M 200.24,34 c 0,6 3.92,10 10,10 4.12,0 7.21,-1.87 8.8,-4.92 l 7.68,4.43 c -3.18,5.3 -9.14,8.49 -16.48,8.49 -11.05,0 -19,-7.2 -19,-18 0,-10.8 7.96,-18 19,-18 7.34,0 13.29,3.19 16.48,8.49 l -7.68,4.43 c -1.59,-3.05 -4.68,-4.92 -8.8,-4.92 -6.07,0 -10,4 -10,10 z M 282.72,5 v 46 h -9 V 5 Z M 36.95,0 73.9,64 H 0 Z M 129.33,5 101.62,53 73.91,5 H 84.3 l 17.32,30 17.32,-30 z m 58.91,12 v 9.69 c -1,-0.29 -2.06,-0.49 -3.2,-0.49 -5.81,0 -10,4 -10,10 V 51 h -9 V 17 h 9 v 9.2 c 0,-5.08 5.91,-9.2 13.2,-9.2 z"
         fill="#000000"
         id="path1085" />
    </g>
  </g>
</svg>
